# xmcd
#
# Track frame offsets: 
#        150
#        450
#        13780
#        33381
#        33681
#        50566
#        85091
#        107166
#        132241
#        151277
#        166878
#        184476
#
# Disc length: 2649 seconds
#
# Revision: 0
# Processed by: cddbd v1.5.2PL0 Copyright (c) Steve Scherf et al.
# Submitted via: ExactAudioCopy v1.1
#
DISCID=950a570c
DTITLE=Peter Karp - The Turning Point
DYEAR=2004
DGENRE=Blues Rock
TTITLE0=Train O'Mine
TTITLE1=Rolling on a Log
TTITLE2=The Turning Point
TTITLE3=The Nietzsche Lounge
TTITLE4=Her and My Blues
TTITLE5=Treat Me Right
TTITLE6=I'm Not Giving Up
TTITLE7=Your Prettiness
TTITLE8=The Arson's Match
TTITLE9=Blues in Mind
TTITLE10=Till You Get Home
TTITLE11=Nobody Really Knows
EXTD=
EXTT0=
EXTT1=
EXTT2=
EXTT3=
EXTT4=
EXTT5=
EXTT6=
EXTT7=
EXTT8=
EXTT9=
EXTT10=
EXTT11=
PLAYORDER=
